# xmcd
#
# Track frame offsets: 
#        150
#        8858
#        19247
#        30675
#        40625
#        53398
#        64853
#        80790
#        93478
#        103973
#        115678
#        130400
#        139826
#        156879
#
# Disc length: 2332 seconds
#
# Revision: 0
# Processed by: cddbd v1.5.2PL0 Copyright (c) Steve Scherf et al.
# Submitted via: ExactAudioCopy v0.95a5
#
DISCID=b7091a0e
DTITLE=Kristi La Rae Goldade - North Dakota's Yodeling Cowgirl
DYEAR=1900
DGENRE=Country
TTITLE0=He Taught Me to Yodel
TTITLE1=Gospel Yodel
TTITLE2=What Happened to the Yodeling Cowgirl
TTITLE3=ND Yodeler (Tennessee Yodeler)
TTITLE4=Blue
TTITLE5=I Want To Be a Cowboy's Sweetheart
TTITLE6=Daddy's Yodel
TTITLE7=Yodel Your Troubles Away
TTITLE8=I Think I Heard a Yodeling Bird
TTITLE9=Yodeling at The Grand Old Opry
TTITLE10=Daddy's Hands
TTITLE11=Yodelers Lament
TTITLE12=Suds In the Bucket
TTITLE13=Santa's Yodeling Song
EXTD=
EXTT0=
EXTT1=
EXTT2=
EXTT3=
EXTT4=
EXTT5=
EXTT6=
EXTT7=
EXTT8=
EXTT9=
EXTT10=
EXTT11=
EXTT12=
EXTT13=
PLAYORDER=
